ISO-10303-21;
HEADER;
FILE_DESCRIPTION (( 'STEP AP214' ),
    '1' );
FILE_NAME ('»¬¹ì.STEP',
    '2026-05-21T06:13:07',
    ( '' ),
    ( '' ),
    'SwSTEP 2.0',
    'SolidWorks 2024',
    '' );
FILE_SCHEMA (( 'AUTOMOTIVE_DESIGN' ));
ENDSEC;

DATA;
#1 = ADVANCED_FACE ( 'NONE', ( #197 ), #78, .F. ) ;
#2 = LINE ( 'NONE', #648, #517 ) ;
#3 = AXIS2_PLACEMENT_3D ( 'NONE', #196, #205, #429 ) ;
#4 = AXIS2_PLACEMENT_3D ( 'NONE', #39, #170, #520 ) ;
#5 = VERTEX_POINT ( 'NONE', #542 ) ;
#6 = VERTEX_POINT ( 'NONE', #604 ) ;
#7 = CARTESIAN_POINT ( 'NONE',  ( -9.500000000000001776, 3.000000000000000000, -5.000000000000000888 ) ) ;
#8 = LINE ( 'NONE', #481, #692 ) ;
#9 = EDGE_CURVE ( 'NONE', #451, #113, #545, .T. ) ;
#10 = VECTOR ( 'NONE', #89, 1000.000000000000000 ) ;
#11 = DIRECTION ( 'NONE',  ( 1.000000000000000000, -0.000000000000000000, -0.000000000000000000 ) ) ;
#12 = DIRECTION ( 'NONE',  ( -1.445602896647339163E-16, -1.000000000000000000, 0.000000000000000000 ) ) ;
#13 = CARTESIAN_POINT ( 'NONE',  ( -14.49999999999999822, 9.099999999999999645, 5.000000000000000000 ) ) ;
#14 = PLANE ( 'NONE',  #341 ) ;
#15 = EDGE_CURVE ( 'NONE', #443, #753, #251, .T. ) ;
#16 = VERTEX_POINT ( 'NONE', #430 ) ;
#17 = VECTOR ( 'NONE', #55, 1000.000000000000000 ) ;
#18 = CARTESIAN_POINT ( 'NONE',  ( -10.00000000000000355, -1.449999999999999956, -10.00000000000000000 ) ) ;
#19 = ORIENTED_EDGE ( 'NONE', *, *, #42, .T. ) ;
#20 = CARTESIAN_POINT ( 'NONE',  ( -14.49999999999999822, 9.099999999999999645, 5.000000000000000000 ) ) ;
#21 = DIRECTION ( 'NONE',  ( -1.000000000000000000, -0.000000000000000000, -0.000000000000000000 ) ) ;
#22 = ORIENTED_EDGE ( 'NONE', *, *, #718, .F. ) ;
#23 = PLANE ( 'NONE',  #282 ) ;
#24 = VERTEX_POINT ( 'NONE', #670 ) ;
#25 = DIRECTION ( 'NONE',  ( 1.000000000000000000, 0.000000000000000000, -0.000000000000000000 ) ) ;
#26 = CARTESIAN_POINT ( 'NONE',  ( 9.999999999999991118, 0.000000000000000000, -5.000000000000000000 ) ) ;
#27 = ADVANCED_FACE ( 'NONE', ( #424 ), #203, .F. ) ;
#28 = ORIENTED_EDGE ( 'NONE', *, *, #15, .T. ) ;
#29 = DIRECTION ( 'NONE',  ( 0.000000000000000000, 0.000000000000000000, -1.000000000000000000 ) ) ;
#30 = CARTESIAN_POINT ( 'NONE',  ( 14.50000000000000178, 9.099999999999999645, 5.000000000000000000 ) ) ;
#31 = ORIENTED_EDGE ( 'NONE', *, *, #698, .F. ) ;
#32 = LINE ( 'NONE', #262, #291 ) ;
#33 = PLANE ( 'NONE',  #647 ) ;
#34 = CARTESIAN_POINT ( 'NONE',  ( -9.500000000000001776, 6.100000000000000533, 4.999999999999999112 ) ) ;
#35 = ORIENTED_EDGE ( 'NONE', *, *, #671, .T. ) ;
#36 = DIRECTION ( 'NONE',  ( -1.000000000000000000, 0.000000000000000000, 0.000000000000000000 ) ) ;
#37 = ORIENTED_EDGE ( 'NONE', *, *, #71, .T. ) ;
#38 = ORIENTED_EDGE ( 'NONE', *, *, #708, .F. ) ;
#39 = CARTESIAN_POINT ( 'NONE',  ( -14.49999999999999822, 9.099999999999999645, 5.000000000000000000 ) ) ;
#40 = VERTEX_POINT ( 'NONE', #739 ) ;
#41 = DIRECTION ( 'NONE',  ( -0.000000000000000000, -1.000000000000000000, -0.000000000000000000 ) ) ;
#42 = EDGE_CURVE ( 'NONE', #730, #443, #8, .T. ) ;
#43 = EDGE_CURVE ( 'NONE', #6, #575, #663, .T. ) ;
#44 = EDGE_LOOP ( 'NONE', ( #295, #317, #311, #396 ) ) ;
#45 = VECTOR ( 'NONE', #352, 1000.000000000000000 ) ;
#46 = VECTOR ( 'NONE', #135, 1000.000000000000000 ) ;
#47 = LINE ( 'NONE', #462, #501 ) ;
#48 = VECTOR ( 'NONE', #627, 1000.000000000000000 ) ;
#49 = CARTESIAN_POINT ( 'NONE',  ( 9.500000000000001776, 6.100000000000000533, 4.999999999999999112 ) ) ;
#50 = LINE ( 'NONE', #523, #268 ) ;
#51 = PLANE ( 'NONE',  #422 ) ;
#52 = VECTOR ( 'NONE', #628, 1000.000000000000000 ) ;
#53 = EDGE_CURVE ( 'NONE', #753, #451, #727, .T. ) ;
#54 = CARTESIAN_POINT ( 'NONE',  ( -14.49999999999999822, 9.099999999999999645, -5.000000000000000000 ) ) ;
#55 = DIRECTION ( 'NONE',  ( 0.000000000000000000, -1.000000000000000000, 0.000000000000000000 ) ) ;
#56 = CARTESIAN_POINT ( 'NONE',  ( -9.500000000000001776, 3.000000000000000000, 4.999999999999999112 ) ) ;
#57 = ORIENTED_EDGE ( 'NONE', *, *, #728, .T. ) ;
#58 = LINE ( 'NONE', #7, #281 ) ;
#59 = EDGE_CURVE ( 'NONE', #380, #152, #426, .T. ) ;
#60 = ORIENTED_EDGE ( 'NONE', *, *, #227, .F. ) ;
#61 = ORIENTED_EDGE ( 'NONE', *, *, #234, .F. ) ;
#62 = LINE ( 'NONE', #112, #713 ) ;
#63 = ORIENTED_EDGE ( 'NONE', *, *, #568, .T. ) ;
#64 = ORIENTED_EDGE ( 'NONE', *, *, #597, .F. ) ;
#65 = MANIFOLD_SOLID_BREP ( '¾µÏò1', #156 ) ;
#66 = DIRECTION ( 'NONE',  ( -0.000000000000000000, 1.000000000000000000, -0.000000000000000000 ) ) ;
#67 = VECTOR ( 'NONE', #223, 1000.000000000000000 ) ;
#68 = DIRECTION ( 'NONE',  ( -0.000000000000000000, -1.000000000000000000, -0.000000000000000000 ) ) ;
#69 = LINE ( 'NONE', #305, #79 ) ;
#70 = ORIENTED_EDGE ( 'NONE', *, *, #182, .T. ) ;
#71 = EDGE_CURVE ( 'NONE', #40, #6, #407, .T. ) ;
#72 = CARTESIAN_POINT ( 'NONE',  ( -14.50000000000000178, 6.100000000000000533, 4.999999999999999112 ) ) ;
#73 = DIRECTION ( 'NONE',  ( 0.000000000000000000, 1.000000000000000000, 0.000000000000000000 ) ) ;
#74 = CARTESIAN_POINT ( 'NONE',  ( -14.49999999999999822, 9.099999999999999645, -5.000000000000000000 ) ) ;
#75 = VERTEX_POINT ( 'NONE', #403 ) ;
#76 = PLANE ( 'NONE',  #171 ) ;
#77 = DIRECTION ( 'NONE',  ( -1.000000000000000000, -0.000000000000000000, -0.000000000000000000 ) ) ;
#78 = PLANE ( 'NONE',  #714 ) ;
#79 = VECTOR ( 'NONE', #719, 1000.000000000000000 ) ;
#80 = MECHANICAL_DESIGN_GEOMETRIC_PRESENTATION_REPRESENTATION (  '', ( #391 ), #766 ) ;
#81 = CARTESIAN_POINT ( 'NONE',  ( 14.50000000000000178, 9.099999999999999645, 5.000000000000000000 ) ) ;
#82 = ORIENTED_EDGE ( 'NONE', *, *, #493, .F. ) ;
#83 = LINE ( 'NONE', #146, #538 ) ;
#84 = FACE_OUTER_BOUND ( 'NONE', #432, .T. ) ;
#85 = EDGE_CURVE ( 'NONE', #697, #212, #104, .T. ) ;
#86 = LINE ( 'NONE', #13, #362 ) ;
#87 = PLANE ( 'NONE',  #193 ) ;
#88 = DIRECTION ( 'NONE',  ( 1.000000000000000000, -0.000000000000000000, -0.000000000000000000 ) ) ;
#89 = DIRECTION ( 'NONE',  ( -0.000000000000000000, -0.000000000000000000, 1.000000000000000000 ) ) ;
#90 = VECTOR ( 'NONE', #577, 1000.000000000000000 ) ;
#91 = DIRECTION ( 'NONE',  ( 0.000000000000000000, 0.000000000000000000, -1.000000000000000000 ) ) ;
#92 = LINE ( 'NONE', #562, #52 ) ;
#93 = EDGE_CURVE ( 'NONE', #283, #455, #703, .T. ) ;
#94 = CARTESIAN_POINT ( 'NONE',  ( -9.500000000000001776, 3.000000000000000000, -5.000000000000000888 ) ) ;
#95 = EDGE_LOOP ( 'NONE', ( #717, #483, #61, #485, #488 ) ) ;
#96 = DIRECTION ( 'NONE',  ( -0.000000000000000000, -0.000000000000000000, 1.000000000000000000 ) ) ;
#97 = ORIENTED_EDGE ( 'NONE', *, *, #580, .T. ) ;
#98 = DIRECTION ( 'NONE',  ( 0.000000000000000000, 0.000000000000000000, -1.000000000000000000 ) ) ;
#99 = VERTEX_POINT ( 'NONE', #285 ) ;
#100 = EDGE_CURVE ( 'NONE', #5, #166, #229, .T. ) ;
#101 =( NAMED_UNIT ( * ) SI_UNIT ( $, .STERADIAN. ) SOLID_ANGLE_UNIT ( ) );
#102 = VERTEX_POINT ( 'NONE', #574 ) ;
#103 = DIRECTION ( 'NONE',  ( 1.445602896647339163E-16, 1.000000000000000000, -0.000000000000000000 ) ) ;
#104 = LINE ( 'NONE', #521, #722 ) ;
#105 = VECTOR ( 'NONE', #599, 1000.000000000000000 ) ;
#106 = DIRECTION ( 'NONE',  ( 1.000000000000000000, 0.000000000000000000, 0.000000000000000000 ) ) ;
#107 = AXIS2_PLACEMENT_3D ( 'NONE', #398, #106, #98 ) ;
#108 = EDGE_CURVE ( 'NONE', #475, #218, #642, .T. ) ;
#109 = CARTESIAN_POINT ( 'NONE',  ( -9.500000000000001776, 3.000000000000000000, 4.999999999999999112 ) ) ;
#110 = CARTESIAN_POINT ( 'NONE',  ( -9.500000000000001776, 3.000000000000000000, -5.000000000000000888 ) ) ;
#111 = VECTOR ( 'NONE', #390, 1000.000000000000000 ) ;
#112 = CARTESIAN_POINT ( 'NONE',  ( -10.00000000000000355, -1.449999999999999956, -10.00000000000000000 ) ) ;
#113 = VERTEX_POINT ( 'NONE', #344 ) ;
#114 = PRESENTATION_LAYER_ASSIGNMENT (  '', '', ( #391 ) ) ;
#115 = LINE ( 'NONE', #531, #754 ) ;
#116 = ORIENTED_EDGE ( 'NONE', *, *, #227, .T. ) ;
#117 = ORIENTED_EDGE ( 'NONE', *, *, #624, .T. ) ;
#118 = ADVANCED_FACE ( 'NONE', ( #582 ), #51, .T. ) ;
#119 = CARTESIAN_POINT ( 'NONE',  ( -9.500000000000001776, 3.000000000000000000, 4.999999999999999112 ) ) ;
#120 = VERTEX_POINT ( 'NONE', #765 ) ;
#121 = ORIENTED_EDGE ( 'NONE', *, *, #157, .F. ) ;
#122 = LINE ( 'NONE', #603, #45 ) ;
#123 = ORIENTED_EDGE ( 'NONE', *, *, #629, .F. ) ;
#124 = ADVANCED_FACE ( 'NONE', ( #395 ), #232, .T. ) ;
#125 = CARTESIAN_POINT ( 'NONE',  ( 9.500000000000001776, 6.100000000000000533, 4.999999999999999112 ) ) ;
#126 = EDGE_LOOP ( 'NONE', ( #296, #254, #353, #308 ) ) ;
#127 = EDGE_CURVE ( 'NONE', #5, #283, #155, .T. ) ;
#128 = DIRECTION ( 'NONE',  ( 0.000000000000000000, 0.000000000000000000, -1.000000000000000000 ) ) ;
#129 = EDGE_LOOP ( 'NONE', ( #200, #469, #449, #154 ) ) ;
#130 = DIRECTION ( 'NONE',  ( 1.000000000000000000, 0.000000000000000000, 0.000000000000000000 ) ) ;
#131 = EDGE_CURVE ( 'NONE', #218, #24, #325, .T. ) ;
#132 = DIRECTION ( 'NONE',  ( -1.000000000000000000, 0.000000000000000000, 0.000000000000000000 ) ) ;
#133 = ORIENTED_EDGE ( 'NONE', *, *, #493, .T. ) ;
#134 = DIRECTION ( 'NONE',  ( -1.000000000000000000, 0.000000000000000000, -0.000000000000000000 ) ) ;
#135 = DIRECTION ( 'NONE',  ( -1.445602896647339163E-16, -1.000000000000000000, 0.000000000000000000 ) ) ;
#136 = PRODUCT_CONTEXT ( 'NONE', #635, 'mechanical' ) ;
#137 = PLANE ( 'NONE',  #392 ) ;
#138 = EDGE_CURVE ( 'NONE', #75, #113, #211, .T. ) ;
#139 = ORIENTED_EDGE ( 'NONE', *, *, #42, .F. ) ;
#140 = LINE ( 'NONE', #489, #612 ) ;
#141 = FACE_OUTER_BOUND ( 'NONE', #598, .T. ) ;
#142 = VECTOR ( 'NONE', #264, 1000.000000000000000 ) ;
#143 = VECTOR ( 'NONE', #406, 1000.000000000000000 ) ;
#144 = EDGE_LOOP ( 'NONE', ( #470, #418, #459, #164 ) ) ;
#145 = DIRECTION ( 'NONE',  ( -1.000000000000000000, -0.000000000000000000, -0.000000000000000000 ) ) ;
#146 = CARTESIAN_POINT ( 'NONE',  ( 14.50000000000000178, 9.099999999999999645, -5.000000000000000000 ) ) ;
#147 = LINE ( 'NONE', #675, #111 ) ;
#148 = DIRECTION ( 'NONE',  ( 0.000000000000000000, 0.000000000000000000, -1.000000000000000000 ) ) ;
#149 = CARTESIAN_POINT ( 'NONE',  ( -10.00000000000000178, 10.55000000000000071, -5.000000000000000000 ) ) ;
#150 = LINE ( 'NONE', #202, #322 ) ;
#151 = VECTOR ( 'NONE', #41, 1000.000000000000000 ) ;
#152 = VERTEX_POINT ( 'NONE', #690 ) ;
#153 = PLANE ( 'NONE',  #528 ) ;
#154 = ORIENTED_EDGE ( 'NONE', *, *, #601, .T. ) ;
#155 = LINE ( 'NONE', #742, #478 ) ;
#156 = CLOSED_SHELL ( 'NONE', ( #480, #522, #540, #533, #464, #686, #246, #260, #237, #27, #124, #646, #290, #510, #745, #764, #768, #177, #505, #733, #1, #548, #217, #118, #367, #356 ) ) ;
#157 = EDGE_CURVE ( 'NONE', #421, #24, #267, .T. ) ;
#158 = DIRECTION ( 'NONE',  ( 0.000000000000000000, 0.000000000000000000, -1.000000000000000000 ) ) ;
#159 = EDGE_LOOP ( 'NONE', ( #360, #530, #133, #354 ) ) ;
#160 = LINE ( 'NONE', #610, #658 ) ;
#161 = ORIENTED_EDGE ( 'NONE', *, *, #650, .F. ) ;
#162 = EDGE_LOOP ( 'NONE', ( #293, #649, #565, #588 ) ) ;
#163 = DIRECTION ( 'NONE',  ( 1.000000000000000000, -0.000000000000000000, -0.000000000000000000 ) ) ;
#164 = ORIENTED_EDGE ( 'NONE', *, *, #108, .T. ) ;
#165 = FILL_AREA_STYLE ('',( #757 ) ) ;
#166 = VERTEX_POINT ( 'NONE', #738 ) ;
#167 = LINE ( 'NONE', #760, #143 ) ;
#168 = DIRECTION ( 'NONE',  ( -0.000000000000000000, -1.000000000000000000, -0.000000000000000000 ) ) ;
#169 = EDGE_CURVE ( 'NONE', #443, #99, #569, .T. ) ;
#170 = DIRECTION ( 'NONE',  ( 1.000000000000000000, -0.000000000000000000, 0.000000000000000000 ) ) ;
#171 = AXIS2_PLACEMENT_3D ( 'NONE', #312, #433, #674 ) ;
#172 = AXIS2_PLACEMENT_3D ( 'NONE', #194, #148, #619 ) ;
#173 = LINE ( 'NONE', #591, #178 ) ;
#174 = DIRECTION ( 'NONE',  ( -1.445602896647339163E-16, -1.000000000000000000, 0.000000000000000000 ) ) ;
#175 = ORIENTED_EDGE ( 'NONE', *, *, #384, .F. ) ;
#176 = ORIENTED_EDGE ( 'NONE', *, *, #71, .F. ) ;
#177 = ADVANCED_FACE ( 'NONE', ( #274 ), #681, .F. ) ;
#178 = VECTOR ( 'NONE', #179, 1000.000000000000000 ) ;
#179 = DIRECTION ( 'NONE',  ( 0.000000000000000000, 0.000000000000000000, -1.000000000000000000 ) ) ;
#180 = ORIENTED_EDGE ( 'NONE', *, *, #326, .F. ) ;
#181 = ORIENTED_EDGE ( 'NONE', *, *, #59, .F. ) ;
#182 = EDGE_CURVE ( 'NONE', #152, #75, #150, .T. ) ;
#183 = DIRECTION ( 'NONE',  ( -1.000000000000000000, 0.000000000000000000, 0.000000000000000000 ) ) ;
#184 = ORIENTED_EDGE ( 'NONE', *, *, #131, .T. ) ;
#185 = ORIENTED_EDGE ( 'NONE', *, *, #758, .F. ) ;
#186 = AXIS2_PLACEMENT_3D ( 'NONE', #617, #434, #445 ) ;
#187 = FACE_OUTER_BOUND ( 'NONE', #506, .T. ) ;
#188 = EDGE_CURVE ( 'NONE', #575, #212, #147, .T. ) ;
#189 = CARTESIAN_POINT ( 'NONE',  ( 9.999999999999998224, 10.55000000000000071, -5.000000000000000000 ) ) ;
#190 = CARTESIAN_POINT ( 'NONE',  ( 0.000000000000000000, 0.000000000000000000, 0.000000000000000000 ) ) ;
#191 = CARTESIAN_POINT ( 'NONE',  ( -10.00000000000000178, 10.55000000000000071, -10.00000000000000000 ) ) ;
#192 = DIRECTION ( 'NONE',  ( -1.445602896647339163E-16, -1.000000000000000000, 0.000000000000000000 ) ) ;
#193 = AXIS2_PLACEMENT_3D ( 'NONE', #744, #210, #725 ) ;
#194 = CARTESIAN_POINT ( 'NONE',  ( 0.000000000000000000, 0.000000000000000000, -10.00000000000000000 ) ) ;
#195 = ORIENTED_EDGE ( 'NONE', *, *, #127, .T. ) ;
#196 = CARTESIAN_POINT ( 'NONE',  ( 9.999999999999996447, -1.449999999999999956, -10.00000000000000000 ) ) ;
#197 = FACE_OUTER_BOUND ( 'NONE', #95, .T. ) ;
#198 = EDGE_CURVE ( 'NONE', #697, #6, #92, .T. ) ;
#199 = DIRECTION ( 'NONE',  ( -0.000000000000000000, -1.000000000000000000, -0.000000000000000000 ) ) ;
#200 = ORIENTED_EDGE ( 'NONE', *, *, #555, .T. ) ;
#201 = CARTESIAN_POINT ( 'NONE',  ( 9.500000000000001776, 6.100000000000000533, -5.000000000000000888 ) ) ;
#202 = CARTESIAN_POINT ( 'NONE',  ( 9.500000000000001776, 3.000000000000000000, 4.999999999999999112 ) ) ;
#203 = PLANE ( 'NONE',  #587 ) ;
#204 = LINE ( 'NONE', #149, #715 ) ;
#205 = DIRECTION ( 'NONE',  ( 0.000000000000000000, 1.000000000000000000, 0.000000000000000000 ) ) ;
#206 = DIRECTION ( 'NONE',  ( -1.445602896647339163E-16, -1.000000000000000000, 0.000000000000000000 ) ) ;
#207 = AXIS2_PLACEMENT_3D ( 'NONE', #294, #183, #535 ) ;
#208 = AXIS2_PLACEMENT_3D ( 'NONE', #74, #309, #213 ) ;
#209 = DIRECTION ( 'NONE',  ( 0.000000000000000000, 0.000000000000000000, 1.000000000000000000 ) ) ;
#210 = DIRECTION ( 'NONE',  ( 0.000000000000000000, -1.000000000000000000, -0.000000000000000000 ) ) ;
#211 = LINE ( 'NONE', #685, #687 ) ;
#212 = VERTEX_POINT ( 'NONE', #383 ) ;
#213 = DIRECTION ( 'NONE',  ( 1.000000000000000000, 0.000000000000000000, -0.000000000000000000 ) ) ;
#214 = PRODUCT_DEFINITION_CONTEXT ( 'detailed design', #589, 'design' ) ;
#215 = CARTESIAN_POINT ( 'NONE',  ( -10.00000000000000355, -1.449999999999999956, -5.000000000000000000 ) ) ;
#216 = AXIS2_PLACEMENT_3D ( 'NONE', #30, #36, #752 ) ;
#217 = ADVANCED_FACE ( 'NONE', ( #141 ), #258, .T. ) ;
#218 = VERTEX_POINT ( 'NONE', #26 ) ;
#219 = DIRECTION ( 'NONE',  ( 1.445602896647339163E-16, 1.000000000000000000, -0.000000000000000000 ) ) ;
#220 = ORIENTED_EDGE ( 'NONE', *, *, #138, .F. ) ;
#221 = CARTESIAN_POINT ( 'NONE',  ( -14.49999999999999822, 9.099999999999999645, -5.000000000000000000 ) ) ;
#222 = ORIENTED_EDGE ( 'NONE', *, *, #198, .T. ) ;
#223 = DIRECTION ( 'NONE',  ( -1.000000000000000000, 0.000000000000000000, 0.000000000000000000 ) ) ;
#224 = ORIENTED_EDGE ( 'NONE', *, *, #93, .T. ) ;
#225 = SURFACE_SIDE_STYLE ('',( #458 ) ) ;
#226 = EDGE_LOOP ( 'NONE', ( #19, #28, #304, #321, #184, #121, #534, #759 ) ) ;
#227 = EDGE_CURVE ( 'NONE', #756, #413, #387, .T. ) ;
#228 = CARTESIAN_POINT ( 'NONE',  ( -14.49999999999999822, 9.099999999999999645, 5.000000000000000000 ) ) ;
#229 = LINE ( 'NONE', #337, #584 ) ;
#230 = AXIS2_PLACEMENT_3D ( 'NONE', #221, #695, #749 ) ;
#231 = DIRECTION ( 'NONE',  ( -1.000000000000000000, -0.000000000000000000, -0.000000000000000000 ) ) ;
#232 = PLANE ( 'NONE',  #385 ) ;
#233 = DIRECTION ( 'NONE',  ( 0.000000000000000000, -1.000000000000000000, 0.000000000000000000 ) ) ;
#234 = EDGE_CURVE ( 'NONE', #519, #380, #265, .T. ) ;
#235 = DIRECTION ( 'NONE',  ( 1.000000000000000000, -0.000000000000000000, -0.000000000000000000 ) ) ;
#236 = ORIENTED_EDGE ( 'NONE', *, *, #410, .F. ) ;
#237 = ADVANCED_FACE ( 'NONE', ( #84 ), #497, .F. ) ;
#238 = LINE ( 'NONE', #349, #414 ) ;
#239 = EDGE_LOOP ( 'NONE', ( #273, #139, #721, #508 ) ) ;
#240 = ORIENTED_EDGE ( 'NONE', *, *, #379, .F. ) ;
#241 = AXIS2_PLACEMENT_3D ( 'NONE', #119, #420, #770 ) ;
#242 = VECTOR ( 'NONE', #368, 1000.000000000000000 ) ;
#243 = CARTESIAN_POINT ( 'NONE',  ( 9.999999999999998224, 10.55000000000000071, -10.00000000000000000 ) ) ;
#244 = ORIENTED_EDGE ( 'NONE', *, *, #348, .T. ) ;
#245 = ORIENTED_EDGE ( 'NONE', *, *, #518, .F. ) ;
#246 = ADVANCED_FACE ( 'NONE', ( #564 ), #33, .F. ) ;
#247 = DIRECTION ( 'NONE',  ( 1.000000000000000000, -0.000000000000000000, -0.000000000000000000 ) ) ;
#248 = DIRECTION ( 'NONE',  ( 1.000000000000000000, -0.000000000000000000, -0.000000000000000000 ) ) ;
#249 = VECTOR ( 'NONE', #206, 1000.000000000000000 ) ;
#250 = CARTESIAN_POINT ( 'NONE',  ( 14.50000000000000178, 0.000000000000000000, 5.000000000000000000 ) ) ;
#251 = LINE ( 'NONE', #189, #374 ) ;
#252 = ORIENTED_EDGE ( 'NONE', *, *, #326, .T. ) ;
#253 = CARTESIAN_POINT ( 'NONE',  ( 9.500000000000001776, 6.100000000000000533, -5.000000000000000888 ) ) ;
#254 = ORIENTED_EDGE ( 'NONE', *, *, #234, .T. ) ;
#255 = CARTESIAN_POINT ( 'NONE',  ( 14.50000000000000178, 9.099999999999999645, 5.000000000000000000 ) ) ;
#256 = EDGE_LOOP ( 'NONE', ( #57, #570, #498, #419 ) ) ;
#257 = CARTESIAN_POINT ( 'NONE',  ( -14.49999999999999822, 9.099999999999999645, -5.000000000000000000 ) ) ;
#258 = PLANE ( 'NONE',  #625 ) ;
#259 = DIRECTION ( 'NONE',  ( 0.000000000000000000, -1.000000000000000000, 0.000000000000000000 ) ) ;
#260 = ADVANCED_FACE ( 'NONE', ( #504 ), #452, .F. ) ;
#261 =( NAMED_UNIT ( * ) SI_UNIT ( $, .STERADIAN. ) SOLID_ANGLE_UNIT ( ) );
#262 = CARTESIAN_POINT ( 'NONE',  ( -14.50000000000000178, 6.100000000000000533, 4.999999999999999112 ) ) ;
#263 = VERTEX_POINT ( 'NONE', #215 ) ;
#264 = DIRECTION ( 'NONE',  ( 1.000000000000000000, -0.000000000000000000, -0.000000000000000000 ) ) ;
#265 = LINE ( 'NONE', #500, #10 ) ;
#266 = DIRECTION ( 'NONE',  ( 0.000000000000000000, -1.000000000000000000, -0.000000000000000000 ) ) ;
#267 = LINE ( 'NONE', #553, #288 ) ;
#268 = VECTOR ( 'NONE', #103, 1000.000000000000000 ) ;
#269 = FACE_OUTER_BOUND ( 'NONE', #656, .T. ) ;
#270 = EDGE_CURVE ( 'NONE', #537, #575, #160, .T. ) ;
#271 = DIRECTION ( 'NONE',  ( -1.000000000000000000, 0.000000000000000000, 0.000000000000000000 ) ) ;
#272 = DIRECTION ( 'NONE',  ( 1.000000000000000000, -1.445602896647339163E-16, 0.000000000000000000 ) ) ;
#273 = ORIENTED_EDGE ( 'NONE', *, *, #169, .F. ) ;
#274 = FACE_OUTER_BOUND ( 'NONE', #239, .T. ) ;
#275 = ORIENTED_EDGE ( 'NONE', *, *, #671, .F. ) ;
#276 = ORIENTED_EDGE ( 'NONE', *, *, #705, .T. ) ;
#277 = CARTESIAN_POINT ( 'NONE',  ( -14.49999999999999822, 0.000000000000000000, -5.000000000000000000 ) ) ;
#278 = ORIENTED_EDGE ( 'NONE', *, *, #640, .T. ) ;
#279 = SURFACE_STYLE_USAGE ( .BOTH. , #225 ) ;
#280 = EDGE_CURVE ( 'NONE', #380, #102, #662, .T. ) ;
#281 = VECTOR ( 'NONE', #303, 1000.000000000000000 ) ;
#282 = AXIS2_PLACEMENT_3D ( 'NONE', #372, #91, #132 ) ;
#283 = VERTEX_POINT ( 'NONE', #361 ) ;
#284 = LINE ( 'NONE', #460, #302 ) ;
#285 = CARTESIAN_POINT ( 'NONE',  ( -10.00000000000000178, 9.099999999999999645, -5.000000000000000000 ) ) ;
#286 = DIRECTION ( 'NONE',  ( -1.000000000000000000, -0.000000000000000000, -0.000000000000000000 ) ) ;
#287 = DIRECTION ( 'NONE',  ( 0.000000000000000000, -0.000000000000000000, -1.000000000000000000 ) ) ;
#288 = VECTOR ( 'NONE', #490, 1000.000000000000000 ) ;
#289 = DIRECTION ( 'NONE',  ( -1.445602896647339163E-16, -1.000000000000000000, 0.000000000000000000 ) ) ;
#290 = ADVANCED_FACE ( 'NONE', ( #773 ), #423, .F. ) ;
#291 = VECTOR ( 'NONE', #689, 1000.000000000000000 ) ;
#292 = LINE ( 'NONE', #723, #652 ) ;
#293 = ORIENTED_EDGE ( 'NONE', *, *, #585, .T. ) ;
#294 = CARTESIAN_POINT ( 'NONE',  ( -9.500000000000001776, 0.000000000000000000, 0.000000000000000000 ) ) ;
#295 = ORIENTED_EDGE ( 'NONE', *, *, #454, .T. ) ;
#296 = ORIENTED_EDGE ( 'NONE', *, *, #399, .T. ) ;
#297 = PLANE ( 'NONE',  #207 ) ;
#298 = ORIENTED_EDGE ( 'NONE', *, *, #711, .F. ) ;
#299 = ORIENTED_EDGE ( 'NONE', *, *, #568, .F. ) ;
#300 = EDGE_CURVE ( 'NONE', #451, #218, #238, .T. ) ;
#301 = VECTOR ( 'NONE', #66, 1000.000000000000000 ) ;
#302 = VECTOR ( 'NONE', #401, 1000.000000000000000 ) ;
#303 = DIRECTION ( 'NONE',  ( -1.000000000000000000, -0.000000000000000000, -0.000000000000000000 ) ) ;
#304 = ORIENTED_EDGE ( 'NONE', *, *, #53, .T. ) ;
#305 = CARTESIAN_POINT ( 'NONE',  ( -10.00000000000000178, 10.55000000000000071, -5.000000000000000000 ) ) ;
#306 = ORIENTED_EDGE ( 'NONE', *, *, #188, .F. ) ;
#307 = CARTESIAN_POINT ( 'NONE',  ( 9.500000000000001776, 3.000000000000000000, -5.000000000000000888 ) ) ;
#308 = ORIENTED_EDGE ( 'NONE', *, *, #384, .T. ) ;
#309 = DIRECTION ( 'NONE',  ( 0.000000000000000000, 0.000000000000000000, 1.000000000000000000 ) ) ;
#310 = VECTOR ( 'NONE', #541, 1000.000000000000000 ) ;
#311 = ORIENTED_EDGE ( 'NONE', *, *, #15, .F. ) ;
#312 = CARTESIAN_POINT ( 'NONE',  ( -14.49999999999999822, 9.099999999999999645, -5.000000000000000000 ) ) ;
#313 = CARTESIAN_POINT ( 'NONE',  ( 9.999999999999998224, 10.55000000000000071, -5.000000000000000000 ) ) ;
#314 = EDGE_CURVE ( 'NONE', #435, #732, #115, .T. ) ;
#315 = DIRECTION ( 'NONE',  ( 0.000000000000000000, -0.000000000000000000, 1.000000000000000000 ) ) ;
#316 = CARTESIAN_POINT ( 'NONE',  ( -9.500000000000001776, 6.100000000000000533, 4.999999999999999112 ) ) ;
#317 = ORIENTED_EDGE ( 'NONE', *, *, #486, .F. ) ;
#318 = DIRECTION ( 'NONE',  ( -1.000000000000000000, -0.000000000000000000, -0.000000000000000000 ) ) ;
#319 = CARTESIAN_POINT ( 'NONE',  ( -14.49999999999999822, 9.099999999999999645, -5.000000000000000000 ) ) ;
#320 = EDGE_CURVE ( 'NONE', #751, #102, #417, .T. ) ;
#321 = ORIENTED_EDGE ( 'NONE', *, *, #300, .T. ) ;
#322 = VECTOR ( 'NONE', #560, 1000.000000000000000 ) ;
#323 = DIRECTION ( 'NONE',  ( 1.445602896647339163E-16, 1.000000000000000000, 0.000000000000000000 ) ) ;
#324 = PLANE ( 'NONE',  #471 ) ;
#325 = LINE ( 'NONE', #313, #249 ) ;
#326 = EDGE_CURVE ( 'NONE', #413, #701, #122, .T. ) ;
#327 = EDGE_LOOP ( 'NONE', ( #596, #632, #667, #252, #375 ) ) ;
#328 = CARTESIAN_POINT ( 'NONE',  ( 9.999999999999998224, 10.55000000000000071, -10.00000000000000000 ) ) ;
#329 = DIRECTION ( 'NONE',  ( 0.000000000000000000, 1.000000000000000000, 0.000000000000000000 ) ) ;
#330 = ORIENTED_EDGE ( 'NONE', *, *, #601, .F. ) ;
#331 = LINE ( 'NONE', #328, #342 ) ;
#332 = EDGE_LOOP ( 'NONE', ( #716, #38, #330, #412 ) ) ;
#333 = DIRECTION ( 'NONE',  ( 0.000000000000000000, -0.000000000000000000, -1.000000000000000000 ) ) ;
#334 = EDGE_LOOP ( 'NONE', ( #515, #474, #774, #338 ) ) ;
#335 = CARTESIAN_POINT ( 'NONE',  ( 9.999999999999998224, 10.55000000000000071, -10.00000000000000000 ) ) ;
#336 = ORIENTED_EDGE ( 'NONE', *, *, #416, .T. ) ;
#337 = CARTESIAN_POINT ( 'NONE',  ( -14.49999999999999822, 9.099999999999999645, -5.000000000000000000 ) ) ;
#338 = ORIENTED_EDGE ( 'NONE', *, *, #590, .F. ) ;
#339 = DIRECTION ( 'NONE',  ( 1.000000000000000000, -0.000000000000000000, 0.000000000000000000 ) ) ;
#340 = CARTESIAN_POINT ( 'NONE',  ( -14.49999999999999822, 9.099999999999999645, 5.000000000000000000 ) ) ;
#341 = AXIS2_PLACEMENT_3D ( 'NONE', #253, #680, #484 ) ;
#342 = VECTOR ( 'NONE', #607, 1000.000000000000000 ) ;
#343 = PLANE ( 'NONE',  #107 ) ;
#344 = CARTESIAN_POINT ( 'NONE',  ( 14.50000000000000178, 3.000000000000000000, -5.000000000000000888 ) ) ;
#345 = CARTESIAN_POINT ( 'NONE',  ( -9.500000000000001776, 6.100000000000000533, -5.000000000000000888 ) ) ;
#346 = DIRECTION ( 'NONE',  ( -0.000000000000000000, -1.000000000000000000, -0.000000000000000000 ) ) ;
#347 = VECTOR ( 'NONE', #329, 1000.000000000000000 ) ;
#348 = EDGE_CURVE ( 'NONE', #99, #732, #69, .T. ) ;
#349 = CARTESIAN_POINT ( 'NONE',  ( 9.999999999999998224, 10.55000000000000071, -5.000000000000000000 ) ) ;
#350 = ORIENTED_EDGE ( 'NONE', *, *, #280, .T. ) ;
#351 = VECTOR ( 'NONE', #68, 1000.000000000000000 ) ;
#352 = DIRECTION ( 'NONE',  ( 0.000000000000000000, 0.000000000000000000, 1.000000000000000000 ) ) ;
#353 = ORIENTED_EDGE ( 'NONE', *, *, #59, .T. ) ;
#354 = ORIENTED_EDGE ( 'NONE', *, *, #53, .F. ) ;
#355 = CARTESIAN_POINT ( 'NONE',  ( -9.500000000000001776, 6.100000000000000533, -5.000000000000000888 ) ) ;
#356 = ADVANCED_FACE ( 'NONE', ( #187 ), #297, .T. ) ;
#357 = ORIENTED_EDGE ( 'NONE', *, *, #320, .F. ) ;
#358 = EDGE_LOOP ( 'NONE', ( #185, #63, #336, #513, #615, #298, #608, #181, #350, #275, #747, #224 ) ) ;
#359 = CARTESIAN_POINT ( 'NONE',  ( 14.50000000000000178, 9.099999999999999645, -5.000000000000000000 ) ) ;
#360 = ORIENTED_EDGE ( 'NONE', *, *, #364, .F. ) ;
#361 = CARTESIAN_POINT ( 'NONE',  ( -14.49999999999999822, 9.099999999999999645, 5.000000000000000000 ) ) ;
#362 = VECTOR ( 'NONE', #130, 1000.000000000000000 ) ;
#363 = ORIENTED_EDGE ( 'NONE', *, *, #629, .T. ) ;
#364 = EDGE_CURVE ( 'NONE', #519, #753, #709, .T. ) ;
#365 = CARTESIAN_POINT ( 'NONE',  ( 9.999999999999991118, 9.099999999999999645, -5.000000000000000000 ) ) ;
#366 = EDGE_LOOP ( 'NONE', ( #694, #536, #31, #611 ) ) ;
#367 = ADVANCED_FACE ( 'NONE', ( #473 ), #411, .T. ) ;
#368 = DIRECTION ( 'NONE',  ( -1.000000000000000000, 0.000000000000000000, 0.000000000000000000 ) ) ;
#369 = ORIENTED_EDGE ( 'NONE', *, *, #437, .T. ) ;
#370 = DIRECTION ( 'NONE',  ( 1.000000000000000000, 0.000000000000000000, 0.000000000000000000 ) ) ;
#371 = VERTEX_POINT ( 'NONE', #250 ) ;
#372 = CARTESIAN_POINT ( 'NONE',  ( 0.000000000000000000, 0.000000000000000000, -5.000000000000000000 ) ) ;
#373 = AXIS2_PLACEMENT_3D ( 'NONE', #20, #495, #134 ) ;
#374 = VECTOR ( 'NONE', #12, 1000.000000000000000 ) ;
#375 = ORIENTED_EDGE ( 'NONE', *, *, #758, .T. ) ;
#376 = FACE_OUTER_BOUND ( 'NONE', #775, .T. ) ;
#377 = CARTESIAN_POINT ( 'NONE',  ( -9.500000000000001776, 6.100000000000000533, -5.000000000000000888 ) ) ;
#378 = VECTOR ( 'NONE', #219, 1000.000000000000000 ) ;
#379 = EDGE_CURVE ( 'NONE', #756, #40, #58, .T. ) ;
#380 = VERTEX_POINT ( 'NONE', #468 ) ;
#381 = FACE_OUTER_BOUND ( 'NONE', #332, .T. ) ;
#382 = PLANE ( 'NONE',  #373 ) ;
#383 = CARTESIAN_POINT ( 'NONE',  ( -14.49999999999999822, 0.000000000000000000, 5.000000000000000000 ) ) ;
#384 = EDGE_CURVE ( 'NONE', #152, #16, #173, .T. ) ;
#385 = AXIS2_PLACEMENT_3D ( 'NONE', #463, #637, #333 ) ;
#386 = FACE_OUTER_BOUND ( 'NONE', #334, .T. ) ;
#387 = LINE ( 'NONE', #509, #347 ) ;
#388 = CARTESIAN_POINT ( 'NONE',  ( 14.50000000000000178, 6.100000000000000533, -5.000000000000000888 ) ) ;
#389 = ORIENTED_EDGE ( 'NONE', *, *, #772, .T. ) ;
#390 = DIRECTION ( 'NONE',  ( -0.000000000000000000, -0.000000000000000000, 1.000000000000000000 ) ) ;
#391 = STYLED_ITEM ( 'NONE', ( #761 ), #65 ) ;
#392 = AXIS2_PLACEMENT_3D ( 'NONE', #748, #272, #323 ) ;
#393 = FACE_OUTER_BOUND ( 'NONE', #126, .T. ) ;
#394 = EDGE_LOOP ( 'NONE', ( #369, #117, #673, #97, #195, #389 ) ) ;
#395 = FACE_OUTER_BOUND ( 'NONE', #700, .T. ) ;
#396 = ORIENTED_EDGE ( 'NONE', *, *, #624, .F. ) ;
#397 = EDGE_LOOP ( 'NONE', ( #653, #620, #457, #276, #244, #661, #64, #512 ) ) ;
#398 = CARTESIAN_POINT ( 'NONE',  ( 9.500000000000001776, 0.000000000000000000, 0.000000000000000000 ) ) ;
#399 = EDGE_CURVE ( 'NONE', #16, #519, #707, .T. ) ;
#400 = ORIENTED_EDGE ( 'NONE', *, *, #43, .T. ) ;
#401 = DIRECTION ( 'NONE',  ( 0.000000000000000000, 0.000000000000000000, -1.000000000000000000 ) ) ;
#402 = PRODUCT ( '\X2\6ed18f68\X0\', '\X2\6ed18f68\X0\', '', ( #136 ) ) ;
#403 = CARTESIAN_POINT ( 'NONE',  ( 14.50000000000000178, 3.000000000000000000, 4.999999999999999112 ) ) ;
#404 = EDGE_CURVE ( 'NONE', #732, #730, #2, .T. ) ;
#405 = VECTOR ( 'NONE', #163, 1000.000000000000000 ) ;
#406 = DIRECTION ( 'NONE',  ( 0.000000000000000000, -1.000000000000000000, 0.000000000000000000 ) ) ;
#407 = LINE ( 'NONE', #110, #90 ) ;
#408 = EDGE_CURVE ( 'NONE', #654, #263, #62, .T. ) ;
#409 = DIRECTION ( 'NONE',  ( -1.000000000000000000, 1.445602896647339163E-16, 0.000000000000000000 ) ) ;
#410 = EDGE_CURVE ( 'NONE', #113, #475, #655, .T. ) ;
#411 = PLANE ( 'NONE',  #241 ) ;
#412 = ORIENTED_EDGE ( 'NONE', *, *, #314, .T. ) ;
#413 = VERTEX_POINT ( 'NONE', #355 ) ;
#414 = VECTOR ( 'NONE', #174, 1000.000000000000000 ) ;
#415 = VECTOR ( 'NONE', #248, 1000.000000000000000 ) ;
#416 = EDGE_CURVE ( 'NONE', #638, #697, #586, .T. ) ;
#417 = LINE ( 'NONE', #529, #105 ) ;
#418 = ORIENTED_EDGE ( 'NONE', *, *, #9, .T. ) ;
#419 = ORIENTED_EDGE ( 'NONE', *, *, #100, .T. ) ;
#420 = DIRECTION ( 'NONE',  ( -0.000000000000000000, 1.000000000000000000, 0.000000000000000000 ) ) ;
#421 = VERTEX_POINT ( 'NONE', #476 ) ;
#422 = AXIS2_PLACEMENT_3D ( 'NONE', #525, #233, #287 ) ;
#423 = PLANE ( 'NONE',  #524 ) ;
#424 = FACE_OUTER_BOUND ( 'NONE', #394, .T. ) ;
#425 = FACE_OUTER_BOUND ( 'NONE', #366, .T. ) ;
#426 = LINE ( 'NONE', #49, #17 ) ;
#427 = EDGE_CURVE ( 'NONE', #218, #537, #292, .T. ) ;
#428 = EDGE_LOOP ( 'NONE', ( #683, #720, #278, #657, #37 ) ) ;
#429 = DIRECTION ( 'NONE',  ( 0.000000000000000000, -0.000000000000000000, 1.000000000000000000 ) ) ;
#430 = CARTESIAN_POINT ( 'NONE',  ( 9.500000000000001776, 3.000000000000000000, -5.000000000000000888 ) ) ;
#431 = DIRECTION ( 'NONE',  ( 1.445602896647339163E-16, 1.000000000000000000, -0.000000000000000000 ) ) ;
#432 = EDGE_LOOP ( 'NONE', ( #35, #357, #551, #636 ) ) ;
#433 = DIRECTION ( 'NONE',  ( 0.000000000000000000, 0.000000000000000000, 1.000000000000000000 ) ) ;
#434 = DIRECTION ( 'NONE',  ( 0.000000000000000000, 0.000000000000000000, -1.000000000000000000 ) ) ;
#435 = VERTEX_POINT ( 'NONE', #191 ) ;
#436 = LINE ( 'NONE', #487, #48 ) ;
#437 = EDGE_CURVE ( 'NONE', #665, #120, #140, .T. ) ;
#438 = VECTOR ( 'NONE', #11, 1000.000000000000000 ) ;
#439 = CARTESIAN_POINT ( 'NONE',  ( 14.50000000000000178, 0.000000000000000000, -5.000000000000000000 ) ) ;
#440 = DIRECTION ( 'NONE',  ( 0.000000000000000000, 0.000000000000000000, -1.000000000000000000 ) ) ;
#441 = VECTOR ( 'NONE', #755, 1000.000000000000000 ) ;
#442 = FACE_OUTER_BOUND ( 'NONE', #129, .T. ) ;
#443 = VERTEX_POINT ( 'NONE', #365 ) ;
#444 = DIRECTION ( 'NONE',  ( 1.445602896647339163E-16, 1.000000000000000000, -0.000000000000000000 ) ) ;
#445 = DIRECTION ( 'NONE',  ( -1.000000000000000000, 0.000000000000000000, 0.000000000000000000 ) ) ;
#446 = VECTOR ( 'NONE', #21, 1000.000000000000000 ) ;
#447 = LINE ( 'NONE', #450, #378 ) ;
#448 = DIRECTION ( 'NONE',  ( 0.000000000000000000, 0.000000000000000000, 1.000000000000000000 ) ) ;
#449 = ORIENTED_EDGE ( 'NONE', *, *, #597, .T. ) ;
#450 = CARTESIAN_POINT ( 'NONE',  ( -10.00000000000000178, 10.55000000000000071, -5.000000000000000000 ) ) ;
#451 = VERTEX_POINT ( 'NONE', #664 ) ;
#452 = PLANE ( 'NONE',  #230 ) ;
#453 = COLOUR_RGB ( '',0.7921568627450980005, 0.8196078431372548767, 0.9333333333333333481 ) ;
#454 = EDGE_CURVE ( 'NONE', #120, #751, #83, .T. ) ;
#455 = VERTEX_POINT ( 'NONE', #72 ) ;
#456 = CARTESIAN_POINT ( 'NONE',  ( -9.500000000000001776, 6.100000000000000533, -5.000000000000000888 ) ) ;
#457 = ORIENTED_EDGE ( 'NONE', *, *, #650, .T. ) ;
#458 = SURFACE_STYLE_FILL_AREA ( #165 ) ;
#459 = ORIENTED_EDGE ( 'NONE', *, *, #410, .T. ) ;
#460 = CARTESIAN_POINT ( 'NONE',  ( 14.50000000000000178, 0.000000000000000000, 5.000000000000000000 ) ) ;
#461 =( LENGTH_UNIT ( ) NAMED_UNIT ( * ) SI_UNIT ( .MILLI., .METRE. ) );
#462 = CARTESIAN_POINT ( 'NONE',  ( -14.49999999999999822, 9.099999999999999645, -5.000000000000000000 ) ) ;
#463 = CARTESIAN_POINT ( 'NONE',  ( 0.000000000000000000, 0.000000000000000000, 0.000000000000000000 ) ) ;
#464 = ADVANCED_FACE ( 'NONE', ( #479 ), #382, .F. ) ;
#465 = VECTOR ( 'NONE', #145, 1000.000000000000000 ) ;
#466 = DIRECTION ( 'NONE',  ( -0.000000000000000000, -0.000000000000000000, 1.000000000000000000 ) ) ;
#467 = ORIENTED_EDGE ( 'NONE', *, *, #270, .T. ) ;
#468 = CARTESIAN_POINT ( 'NONE',  ( 9.500000000000001776, 6.100000000000000533, 4.999999999999999112 ) ) ;
#469 = ORIENTED_EDGE ( 'NONE', *, *, #698, .T. ) ;
#470 = ORIENTED_EDGE ( 'NONE', *, *, #300, .F. ) ;
#471 = AXIS2_PLACEMENT_3D ( 'NONE', #257, #559, #25 ) ;
#472 = VECTOR ( 'NONE', #514, 1000.000000000000000 ) ;
#473 = FACE_OUTER_BOUND ( 'NONE', #428, .T. ) ;
#474 = ORIENTED_EDGE ( 'NONE', *, *, #427, .T. ) ;
#475 = VERTEX_POINT ( 'NONE', #439 ) ;
#476 = CARTESIAN_POINT ( 'NONE',  ( 9.999999999999996447, -1.449999999999999956, -10.00000000000000000 ) ) ;
#477 = DIRECTION ( 'NONE',  ( 0.000000000000000000, -0.000000000000000000, -1.000000000000000000 ) ) ;
#478 = VECTOR ( 'NONE', #96, 1000.000000000000000 ) ;
#479 = FACE_OUTER_BOUND ( 'NONE', #358, .T. ) ;
#480 = ADVANCED_FACE ( 'NONE', ( #547 ), #324, .F. ) ;
#481 = CARTESIAN_POINT ( 'NONE',  ( 9.999999999999998224, 10.55000000000000071, -5.000000000000000000 ) ) ;
#482 =( LENGTH_UNIT ( ) NAMED_UNIT ( * ) SI_UNIT ( .MILLI., .METRE. ) );
#483 = ORIENTED_EDGE ( 'NONE', *, *, #280, .F. ) ;
#484 = DIRECTION ( 'NONE',  ( -1.000000000000000000, 0.000000000000000000, 0.000000000000000000 ) ) ;
#485 = ORIENTED_EDGE ( 'NONE', *, *, #364, .T. ) ;
#486 = EDGE_CURVE ( 'NONE', #753, #751, #622, .T. ) ;
#487 = CARTESIAN_POINT ( 'NONE',  ( 14.50000000000000178, 9.099999999999999645, 5.000000000000000000 ) ) ;
#488 = ORIENTED_EDGE ( 'NONE', *, *, #486, .T. ) ;
#489 = CARTESIAN_POINT ( 'NONE',  ( 14.50000000000000178, 9.099999999999999645, 5.000000000000000000 ) ) ;
#490 = DIRECTION ( 'NONE',  ( -0.000000000000000000, -0.000000000000000000, 1.000000000000000000 ) ) ;
#491 = CARTESIAN_POINT ( 'NONE',  ( 9.999999999999998224, 10.55000000000000071, -5.000000000000000000 ) ) ;
#492 = DIRECTION ( 'NONE',  ( 1.000000000000000000, 0.000000000000000000, 0.000000000000000000 ) ) ;
#493 = EDGE_CURVE ( 'NONE', #16, #451, #552, .T. ) ;
#494 = CARTESIAN_POINT ( 'NONE',  ( -10.00000000000000178, 10.55000000000000071, -5.000000000000000000 ) ) ;
#495 = DIRECTION ( 'NONE',  ( 0.000000000000000000, 0.000000000000000000, -1.000000000000000000 ) ) ;
#496 = UNCERTAINTY_MEASURE_WITH_UNIT (LENGTH_MEASURE( 1.000000000000000082E-05 ), #461, 'distance_accuracy_value', 'NONE');
#497 = PLANE ( 'NONE',  #216 ) ;
#498 = ORIENTED_EDGE ( 'NONE', *, *, #127, .F. ) ;
#499 = LINE ( 'NONE', #81, #644 ) ;
#500 = CARTESIAN_POINT ( 'NONE',  ( 9.500000000000001776, 6.100000000000000533, 4.999999999999999112 ) ) ;
#501 = VECTOR ( 'NONE', #231, 1000.000000000000000 ) ;
#502 = AXIS2_PLACEMENT_3D ( 'NONE', #190, #209, #492 ) ;
#503 = PLANE ( 'NONE',  #208 ) ;
#504 = FACE_OUTER_BOUND ( 'NONE', #44, .T. ) ;
#505 = ADVANCED_FACE ( 'NONE', ( #726 ), #14, .F. ) ;
#506 = EDGE_LOOP ( 'NONE', ( #60, #594, #299, #180 ) ) ;
#507 = FACE_OUTER_BOUND ( 'NONE', #144, .T. ) ;
#508 = ORIENTED_EDGE ( 'NONE', *, *, #348, .F. ) ;
#509 = CARTESIAN_POINT ( 'NONE',  ( -9.500000000000001776, 6.100000000000000533, -5.000000000000000888 ) ) ;
#510 = ADVANCED_FACE ( 'NONE', ( #425 ), #731, .F. ) ;
#511 = PRODUCT_DEFINITION_SHAPE ( 'NONE', 'NONE',  #592 ) ;
#512 = ORIENTED_EDGE ( 'NONE', *, *, #408, .T. ) ;
#513 = ORIENTED_EDGE ( 'NONE', *, *, #85, .T. ) ;
#514 = DIRECTION ( 'NONE',  ( -1.000000000000000000, -0.000000000000000000, -0.000000000000000000 ) ) ;
#515 = ORIENTED_EDGE ( 'NONE', *, *, #131, .F. ) ;
#516 =( NAMED_UNIT ( * ) PLANE_ANGLE_UNIT ( ) SI_UNIT ( $, .RADIAN. ) );
#517 = VECTOR ( 'NONE', #247, 1000.000000000000000 ) ;
#518 = EDGE_CURVE ( 'NONE', #212, #371, #668, .T. ) ;
#519 = VERTEX_POINT ( 'NONE', #201 ) ;
#520 = DIRECTION ( 'NONE',  ( 0.000000000000000000, 0.000000000000000000, -1.000000000000000000 ) ) ;
#521 = CARTESIAN_POINT ( 'NONE',  ( -14.49999999999999822, 9.099999999999999645, 5.000000000000000000 ) ) ;
#522 = ADVANCED_FACE ( 'NONE', ( #609 ), #76, .F. ) ;
#523 = CARTESIAN_POINT ( 'NONE',  ( -10.00000000000000178, 10.55000000000000071, -10.00000000000000000 ) ) ;
#524 = AXIS2_PLACEMENT_3D ( 'NONE', #243, #409, #651 ) ;
#525 = CARTESIAN_POINT ( 'NONE',  ( -9.500000000000001776, 6.100000000000000533, 4.999999999999999112 ) ) ;
#526 = LINE ( 'NONE', #693, #67 ) ;
#527 = CARTESIAN_POINT ( 'NONE',  ( -14.49999999999999822, 0.000000000000000000, -5.000000000000000000 ) ) ;
#528 = AXIS2_PLACEMENT_3D ( 'NONE', #740, #266, #29 ) ;
#529 = CARTESIAN_POINT ( 'NONE',  ( 14.50000000000000178, 6.100000000000000533, 4.999999999999999112 ) ) ;
#530 = ORIENTED_EDGE ( 'NONE', *, *, #399, .F. ) ;
#531 = CARTESIAN_POINT ( 'NONE',  ( -10.00000000000000178, 10.55000000000000071, -10.00000000000000000 ) ) ;
#532 = ORIENTED_EDGE ( 'NONE', *, *, #270, .F. ) ;
#533 = ADVANCED_FACE ( 'NONE', ( #376 ), #616, .F. ) ;
#534 = ORIENTED_EDGE ( 'NONE', *, *, #555, .F. ) ;
#535 = DIRECTION ( 'NONE',  ( 0.000000000000000000, 0.000000000000000000, -1.000000000000000000 ) ) ;
#536 = ORIENTED_EDGE ( 'NONE', *, *, #408, .F. ) ;
#537 = VERTEX_POINT ( 'NONE', #634 ) ;
#538 = VECTOR ( 'NONE', #605, 1000.000000000000000 ) ;
#539 = VECTOR ( 'NONE', #158, 1000.000000000000000 ) ;
#540 = ADVANCED_FACE ( 'NONE', ( #572 ), #702, .F. ) ;
#541 = DIRECTION ( 'NONE',  ( -0.000000000000000000, -1.000000000000000000, -0.000000000000000000 ) ) ;
#542 = CARTESIAN_POINT ( 'NONE',  ( -14.49999999999999822, 9.099999999999999645, -5.000000000000000000 ) ) ;
#543 = EDGE_CURVE ( 'NONE', #413, #710, #581, .T. ) ;
#544 = CARTESIAN_POINT ( 'NONE',  ( 9.500000000000001776, 6.100000000000000533, -5.000000000000000888 ) ) ;
#545 = LINE ( 'NONE', #554, #415 ) ;
#546 = VECTOR ( 'NONE', #767, 1000.000000000000000 ) ;
#547 = FACE_OUTER_BOUND ( 'NONE', #162, .T. ) ;
#548 = ADVANCED_FACE ( 'NONE', ( #393 ), #343, .T. ) ;
#549 = ORIENTED_EDGE ( 'NONE', *, *, #711, .T. ) ;
#550 = CARTESIAN_POINT ( 'NONE',  ( 9.999999999999996447, -1.449999999999999956, -10.00000000000000000 ) ) ;
#551 = ORIENTED_EDGE ( 'NONE', *, *, #454, .F. ) ;
#552 = LINE ( 'NONE', #307, #142 ) ;
#553 = CARTESIAN_POINT ( 'NONE',  ( 9.999999999999996447, -1.449999999999999956, -10.00000000000000000 ) ) ;
#554 = CARTESIAN_POINT ( 'NONE',  ( 9.500000000000001776, 3.000000000000000000, -5.000000000000000888 ) ) ;
#555 = EDGE_CURVE ( 'NONE', #771, #421, #576, .T. ) ;
#556 = SHAPE_DEFINITION_REPRESENTATION ( #511, #618 ) ;
#557 = CARTESIAN_POINT ( 'NONE',  ( 9.999999999999998224, 10.55000000000000071, -5.000000000000000000 ) ) ;
#558 = EDGE_LOOP ( 'NONE', ( #236, #220, #549, #363 ) ) ;
#559 = DIRECTION ( 'NONE',  ( 0.000000000000000000, 0.000000000000000000, 1.000000000000000000 ) ) ;
#560 = DIRECTION ( 'NONE',  ( 1.000000000000000000, -0.000000000000000000, -0.000000000000000000 ) ) ;
#561 = CARTESIAN_POINT ( 'NONE',  ( -14.50000000000000178, 3.000000000000000000, 4.999999999999999112 ) ) ;
#562 = CARTESIAN_POINT ( 'NONE',  ( -14.50000000000000178, 3.000000000000000000, 4.999999999999999112 ) ) ;
#563 = CARTESIAN_POINT ( 'NONE',  ( -10.00000000000000178, 10.55000000000000071, -5.000000000000000000 ) ) ;
#564 = FACE_OUTER_BOUND ( 'NONE', #558, .T. ) ;
#565 = ORIENTED_EDGE ( 'NONE', *, *, #580, .F. ) ;
#566 = LINE ( 'NONE', #34, #465 ) ;
#567 = ORIENTED_EDGE ( 'NONE', *, *, #427, .F. ) ;
#568 = EDGE_CURVE ( 'NONE', #701, #638, #167, .T. ) ;
#569 = LINE ( 'NONE', #319, #446 ) ;
#570 = ORIENTED_EDGE ( 'NONE', *, *, #93, .F. ) ;
#571 = ORIENTED_EDGE ( 'NONE', *, *, #138, .T. ) ;
#572 = FACE_OUTER_BOUND ( 'NONE', #256, .T. ) ;
#573 = ORIENTED_EDGE ( 'NONE', *, *, #9, .F. ) ;
#574 = CARTESIAN_POINT ( 'NONE',  ( 14.50000000000000178, 6.100000000000000533, 4.999999999999999112 ) ) ;
#575 = VERTEX_POINT ( 'NONE', #277 ) ;
#576 = LINE ( 'NONE', #335, #613 ) ;
#577 = DIRECTION ( 'NONE',  ( -1.000000000000000000, -0.000000000000000000, -0.000000000000000000 ) ) ;
#578 = VECTOR ( 'NONE', #88, 1000.000000000000000 ) ;
#579 = VECTOR ( 'NONE', #286, 1000.000000000000000 ) ;
#580 = EDGE_CURVE ( 'NONE', #99, #5, #645, .T. ) ;
#581 = LINE ( 'NONE', #456, #579 ) ;
#582 = FACE_OUTER_BOUND ( 'NONE', #327, .T. ) ;
#583 = CARTESIAN_POINT ( 'NONE',  ( 9.999999999999998224, 10.55000000000000071, -10.00000000000000000 ) ) ;
#584 = VECTOR ( 'NONE', #168, 1000.000000000000000 ) ;
#585 = EDGE_CURVE ( 'NONE', #710, #166, #639, .T. ) ;
#586 = LINE ( 'NONE', #56, #643 ) ;
#587 = AXIS2_PLACEMENT_3D ( 'NONE', #600, #259, #477 ) ;
#588 = ORIENTED_EDGE ( 'NONE', *, *, #705, .F. ) ;
#589 = APPLICATION_CONTEXT ( 'automotive_design' ) ;
#590 = EDGE_CURVE ( 'NONE', #24, #263, #526, .T. ) ;
#591 = CARTESIAN_POINT ( 'NONE',  ( 9.500000000000001776, 3.000000000000000000, 4.999999999999999112 ) ) ;
#592 = PRODUCT_DEFINITION ( 'æœ', '', #769, #214 ) ;
#593 = ORIENTED_EDGE ( 'NONE', *, *, #43, .F. ) ;
#594 = ORIENTED_EDGE ( 'NONE', *, *, #640, .F. ) ;
#595 = DIRECTION ( 'NONE',  ( -1.000000000000000000, -0.000000000000000000, -0.000000000000000000 ) ) ;
#596 = ORIENTED_EDGE ( 'NONE', *, *, #728, .F. ) ;
#597 = EDGE_CURVE ( 'NONE', #654, #435, #50, .T. ) ;
#598 = EDGE_LOOP ( 'NONE', ( #161, #240, #116, #691 ) ) ;
#599 = DIRECTION ( 'NONE',  ( -0.000000000000000000, -0.000000000000000000, 1.000000000000000000 ) ) ;
#600 = CARTESIAN_POINT ( 'NONE',  ( 0.000000000000000000, 9.099999999999999645, 0.000000000000000000 ) ) ;
#601 = EDGE_CURVE ( 'NONE', #435, #771, #699, .T. ) ;
#602 = AXIS2_PLACEMENT_3D ( 'NONE', #228, #339, #763 ) ;
#603 = CARTESIAN_POINT ( 'NONE',  ( -9.500000000000001776, 6.100000000000000533, 4.999999999999999112 ) ) ;
#604 = CARTESIAN_POINT ( 'NONE',  ( -14.50000000000000178, 3.000000000000000000, -5.000000000000000888 ) ) ;
#605 = DIRECTION ( 'NONE',  ( -0.000000000000000000, -1.000000000000000000, -0.000000000000000000 ) ) ;
#606 = CARTESIAN_POINT ( 'NONE',  ( 9.500000000000001776, 6.100000000000000533, 4.999999999999999112 ) ) ;
#607 = DIRECTION ( 'NONE',  ( -0.000000000000000000, -0.000000000000000000, 1.000000000000000000 ) ) ;
#608 = ORIENTED_EDGE ( 'NONE', *, *, #182, .F. ) ;
#609 = FACE_OUTER_BOUND ( 'NONE', #630, .T. ) ;
#610 = CARTESIAN_POINT ( 'NONE',  ( -14.49999999999999822, 0.000000000000000000, -5.000000000000000000 ) ) ;
#611 = ORIENTED_EDGE ( 'NONE', *, *, #157, .T. ) ;
#612 = VECTOR ( 'NONE', #128, 1000.000000000000000 ) ;
#613 = VECTOR ( 'NONE', #289, 1000.000000000000000 ) ;
#614 = DIRECTION ( 'NONE',  ( 1.445602896647339163E-16, 1.000000000000000000, -0.000000000000000000 ) ) ;
#615 = ORIENTED_EDGE ( 'NONE', *, *, #518, .T. ) ;
#616 = PLANE ( 'NONE',  #602 ) ;
#617 = CARTESIAN_POINT ( 'NONE',  ( 0.000000000000000000, 0.000000000000000000, -5.000000000000000000 ) ) ;
#618 = ADVANCED_BREP_SHAPE_REPRESENTATION ( '\X2\6ed18f68\X0\', ( #65, #502 ), #706 ) ;
#619 = DIRECTION ( 'NONE',  ( -1.000000000000000000, 0.000000000000000000, 0.000000000000000000 ) ) ;
#620 = ORIENTED_EDGE ( 'NONE', *, *, #718, .T. ) ;
#621 = LINE ( 'NONE', #563, #743 ) ;
#622 = LINE ( 'NONE', #741, #578 ) ;
#623 = DIRECTION ( 'NONE',  ( 1.000000000000000000, 0.000000000000000000, -0.000000000000000000 ) ) ;
#624 = EDGE_CURVE ( 'NONE', #120, #443, #47, .T. ) ;
#625 = AXIS2_PLACEMENT_3D ( 'NONE', #377, #633, #623 ) ;
#626 = CARTESIAN_POINT ( 'NONE',  ( 9.999999999999998224, 10.55000000000000071, -10.00000000000000000 ) ) ;
#627 = DIRECTION ( 'NONE',  ( -0.000000000000000000, -1.000000000000000000, -0.000000000000000000 ) ) ;
#628 = DIRECTION ( 'NONE',  ( 0.000000000000000000, 0.000000000000000000, -1.000000000000000000 ) ) ;
#629 = EDGE_CURVE ( 'NONE', #371, #475, #284, .T. ) ;
#630 = EDGE_LOOP ( 'NONE', ( #176, #22, #467, #593 ) ) ;
#631 = CARTESIAN_POINT ( 'NONE',  ( 9.999999999999998224, 6.100000000000000533, -5.000000000000000888 ) ) ;
#632 = ORIENTED_EDGE ( 'NONE', *, *, #585, .F. ) ;
#633 = DIRECTION ( 'NONE',  ( 0.000000000000000000, 0.000000000000000000, 1.000000000000000000 ) ) ;
#634 = CARTESIAN_POINT ( 'NONE',  ( -10.00000000000000355, 0.000000000000000000, -5.000000000000000000 ) ) ;
#635 = APPLICATION_CONTEXT ( 'automotive_design' ) ;
#636 = ORIENTED_EDGE ( 'NONE', *, *, #437, .F. ) ;
#637 = DIRECTION ( 'NONE',  ( 0.000000000000000000, -1.000000000000000000, 0.000000000000000000 ) ) ;
#638 = VERTEX_POINT ( 'NONE', #641 ) ;
#639 = LINE ( 'NONE', #345, #441 ) ;
#640 = EDGE_CURVE ( 'NONE', #638, #756, #704, .T. ) ;
#641 = CARTESIAN_POINT ( 'NONE',  ( -9.500000000000001776, 3.000000000000000000, 4.999999999999999112 ) ) ;
#642 = LINE ( 'NONE', #527, #546 ) ;
#643 = VECTOR ( 'NONE', #595, 1000.000000000000000 ) ;
#644 = VECTOR ( 'NONE', #199, 1000.000000000000000 ) ;
#645 = LINE ( 'NONE', #54, #472 ) ;
#646 = ADVANCED_FACE ( 'NONE', ( #386 ), #23, .F. ) ;
#647 = AXIS2_PLACEMENT_3D ( 'NONE', #746, #271, #448 ) ;
#648 = CARTESIAN_POINT ( 'NONE',  ( 9.999999999999998224, 10.55000000000000071, -5.000000000000000000 ) ) ;
#649 = ORIENTED_EDGE ( 'NONE', *, *, #100, .F. ) ;
#650 = EDGE_CURVE ( 'NONE', #40, #710, #204, .T. ) ;
#651 = DIRECTION ( 'NONE',  ( -1.445602896647339163E-16, -1.000000000000000000, 0.000000000000000000 ) ) ;
#652 = VECTOR ( 'NONE', #318, 1000.000000000000000 ) ;
#653 = ORIENTED_EDGE ( 'NONE', *, *, #660, .T. ) ;
#654 = VERTEX_POINT ( 'NONE', #18 ) ;
#655 = LINE ( 'NONE', #359, #310 ) ;
#656 = EDGE_LOOP ( 'NONE', ( #571, #573, #82, #175, #70 ) ) ;
#657 = ORIENTED_EDGE ( 'NONE', *, *, #379, .T. ) ;
#658 = VECTOR ( 'NONE', #77, 1000.000000000000000 ) ;
#659 = CARTESIAN_POINT ( 'NONE',  ( 9.500000000000001776, 6.100000000000000533, -5.000000000000000888 ) ) ;
#660 = EDGE_CURVE ( 'NONE', #263, #537, #447, .T. ) ;
#661 = ORIENTED_EDGE ( 'NONE', *, *, #314, .F. ) ;
#662 = LINE ( 'NONE', #125, #762 ) ;
#663 = LINE ( 'NONE', #724, #351 ) ;
#664 = CARTESIAN_POINT ( 'NONE',  ( 9.999999999999996447, 2.999999999999999112, -5.000000000000000000 ) ) ;
#665 = VERTEX_POINT ( 'NONE', #255 ) ;
#666 = APPLICATION_PROTOCOL_DEFINITION ( 'draft international standard', 'automotive_design', 1998, #635 ) ;
#667 = ORIENTED_EDGE ( 'NONE', *, *, #543, .F. ) ;
#668 = LINE ( 'NONE', #737, #677 ) ;
#669 = UNCERTAINTY_MEASURE_WITH_UNIT (LENGTH_MEASURE( 1.000000000000000082E-05 ), #482, 'distance_accuracy_value', 'NONE');
#670 = CARTESIAN_POINT ( 'NONE',  ( 9.999999999999996447, -1.449999999999999956, -5.000000000000000000 ) ) ;
#671 = EDGE_CURVE ( 'NONE', #665, #102, #436, .T. ) ;
#672 = FACE_OUTER_BOUND ( 'NONE', #397, .T. ) ;
#673 = ORIENTED_EDGE ( 'NONE', *, *, #169, .T. ) ;
#674 = DIRECTION ( 'NONE',  ( 1.000000000000000000, 0.000000000000000000, -0.000000000000000000 ) ) ;
#675 = CARTESIAN_POINT ( 'NONE',  ( -14.49999999999999822, 0.000000000000000000, 5.000000000000000000 ) ) ;
#676 = APPLICATION_PROTOCOL_DEFINITION ( 'draft international standard', 'automotive_design', 1998, #589 ) ;
#677 = VECTOR ( 'NONE', #370, 1000.000000000000000 ) ;
#678 = VECTOR ( 'NONE', #614, 1000.000000000000000 ) ;
#679 = LINE ( 'NONE', #550, #242 ) ;
#680 = DIRECTION ( 'NONE',  ( -0.000000000000000000, 0.000000000000000000, -1.000000000000000000 ) ) ;
#681 = PLANE ( 'NONE',  #186 ) ;
#682 = PLANE ( 'NONE',  #172 ) ;
#683 = ORIENTED_EDGE ( 'NONE', *, *, #198, .F. ) ;
#684 = CARTESIAN_POINT ( 'NONE',  ( -10.00000000000000178, 6.100000000000000533, -5.000000000000000000 ) ) ;
#685 = CARTESIAN_POINT ( 'NONE',  ( 14.50000000000000178, 3.000000000000000000, 4.999999999999999112 ) ) ;
#686 = ADVANCED_FACE ( 'NONE', ( #507 ), #503, .F. ) ;
#687 = VECTOR ( 'NONE', #440, 1000.000000000000000 ) ;
#688 = ORIENTED_EDGE ( 'NONE', *, *, #85, .F. ) ;
#689 = DIRECTION ( 'NONE',  ( 0.000000000000000000, 0.000000000000000000, 1.000000000000000000 ) ) ;
#690 = CARTESIAN_POINT ( 'NONE',  ( 9.500000000000001776, 3.000000000000000000, 4.999999999999999112 ) ) ;
#691 = ORIENTED_EDGE ( 'NONE', *, *, #543, .T. ) ;
#692 = VECTOR ( 'NONE', #192, 1000.000000000000000 ) ;
#693 = CARTESIAN_POINT ( 'NONE',  ( 9.999999999999996447, -1.449999999999999956, -5.000000000000000000 ) ) ;
#694 = ORIENTED_EDGE ( 'NONE', *, *, #590, .T. ) ;
#695 = DIRECTION ( 'NONE',  ( 0.000000000000000000, 0.000000000000000000, 1.000000000000000000 ) ) ;
#696 = ORIENTED_EDGE ( 'NONE', *, *, #188, .T. ) ;
#697 = VERTEX_POINT ( 'NONE', #561 ) ;
#698 = EDGE_CURVE ( 'NONE', #421, #654, #679, .T. ) ;
#699 = LINE ( 'NONE', #583, #405 ) ;
#700 = EDGE_LOOP ( 'NONE', ( #123, #245, #306, #532, #567, #736 ) ) ;
#701 = VERTEX_POINT ( 'NONE', #316 ) ;
#702 = PLANE ( 'NONE',  #4 ) ;
#703 = LINE ( 'NONE', #340, #151 ) ;
#704 = LINE ( 'NONE', #109, #539 ) ;
#705 = EDGE_CURVE ( 'NONE', #710, #99, #750, .T. ) ;
#706 =( GEOMETRIC_REPRESENTATION_CONTEXT ( 3 ) GLOBAL_UNCERTAINTY_ASSIGNED_CONTEXT ( ( #669 ) ) GLOBAL_UNIT_ASSIGNED_CONTEXT ( ( #482, #729, #261 ) ) REPRESENTATION_CONTEXT ( 'NONE', 'WORKASPACE' ) );
#707 = LINE ( 'NONE', #659, #301 ) ;
#708 = EDGE_CURVE ( 'NONE', #771, #730, #331, .T. ) ;
#709 = LINE ( 'NONE', #544, #438 ) ;
#710 = VERTEX_POINT ( 'NONE', #684 ) ;
#711 = EDGE_CURVE ( 'NONE', #75, #371, #499, .T. ) ;
#712 = DIRECTION ( 'NONE',  ( -0.000000000000000000, -0.000000000000000000, 1.000000000000000000 ) ) ;
#713 = VECTOR ( 'NONE', #712, 1000.000000000000000 ) ;
#714 = AXIS2_PLACEMENT_3D ( 'NONE', #606, #73, #315 ) ;
#715 = VECTOR ( 'NONE', #444, 1000.000000000000000 ) ;
#716 = ORIENTED_EDGE ( 'NONE', *, *, #404, .T. ) ;
#717 = ORIENTED_EDGE ( 'NONE', *, *, #320, .T. ) ;
#718 = EDGE_CURVE ( 'NONE', #537, #40, #621, .T. ) ;
#719 = DIRECTION ( 'NONE',  ( 1.445602896647339163E-16, 1.000000000000000000, -0.000000000000000000 ) ) ;
#720 = ORIENTED_EDGE ( 'NONE', *, *, #416, .F. ) ;
#721 = ORIENTED_EDGE ( 'NONE', *, *, #404, .F. ) ;
#722 = VECTOR ( 'NONE', #346, 1000.000000000000000 ) ;
#723 = CARTESIAN_POINT ( 'NONE',  ( -14.49999999999999822, 0.000000000000000000, -5.000000000000000000 ) ) ;
#724 = CARTESIAN_POINT ( 'NONE',  ( -14.49999999999999822, 9.099999999999999645, -5.000000000000000000 ) ) ;
#725 = DIRECTION ( 'NONE',  ( 0.000000000000000000, 0.000000000000000000, -1.000000000000000000 ) ) ;
#726 = FACE_OUTER_BOUND ( 'NONE', #159, .T. ) ;
#727 = LINE ( 'NONE', #491, #46 ) ;
#728 = EDGE_CURVE ( 'NONE', #166, #455, #32, .T. ) ;
#729 =( NAMED_UNIT ( * ) PLANE_ANGLE_UNIT ( ) SI_UNIT ( $, .RADIAN. ) );
#730 = VERTEX_POINT ( 'NONE', #557 ) ;
#731 = PLANE ( 'NONE',  #3 ) ;
#732 = VERTEX_POINT ( 'NONE', #494 ) ;
#733 = ADVANCED_FACE ( 'NONE', ( #269 ), #153, .F. ) ;
#734 = PRODUCT_RELATED_PRODUCT_CATEGORY ( 'part', '', ( #402 ) ) ;
#735 = CARTESIAN_POINT ( 'NONE',  ( -10.00000000000000178, 10.55000000000000071, -5.000000000000000000 ) ) ;
#736 = ORIENTED_EDGE ( 'NONE', *, *, #108, .F. ) ;
#737 = CARTESIAN_POINT ( 'NONE',  ( -14.49999999999999822, 0.000000000000000000, 5.000000000000000000 ) ) ;
#738 = CARTESIAN_POINT ( 'NONE',  ( -14.50000000000000178, 6.100000000000000533, -5.000000000000000888 ) ) ;
#739 = CARTESIAN_POINT ( 'NONE',  ( -10.00000000000000178, 3.000000000000000000, -5.000000000000000888 ) ) ;
#740 = CARTESIAN_POINT ( 'NONE',  ( 9.500000000000001776, 3.000000000000000000, 4.999999999999999112 ) ) ;
#741 = CARTESIAN_POINT ( 'NONE',  ( 9.500000000000001776, 6.100000000000000533, -5.000000000000000888 ) ) ;
#742 = CARTESIAN_POINT ( 'NONE',  ( -14.49999999999999822, 9.099999999999999645, 5.000000000000000000 ) ) ;
#743 = VECTOR ( 'NONE', #431, 1000.000000000000000 ) ;
#744 = CARTESIAN_POINT ( 'NONE',  ( 9.999999999999998224, 10.55000000000000071, -10.00000000000000000 ) ) ;
#745 = ADVANCED_FACE ( 'NONE', ( #672 ), #137, .F. ) ;
#746 = CARTESIAN_POINT ( 'NONE',  ( 14.50000000000000178, 9.099999999999999645, 5.000000000000000000 ) ) ;
#747 = ORIENTED_EDGE ( 'NONE', *, *, #772, .F. ) ;
#748 = CARTESIAN_POINT ( 'NONE',  ( -10.00000000000000178, 10.55000000000000071, -10.00000000000000000 ) ) ;
#749 = DIRECTION ( 'NONE',  ( 1.000000000000000000, 0.000000000000000000, -0.000000000000000000 ) ) ;
#750 = LINE ( 'NONE', #735, #678 ) ;
#751 = VERTEX_POINT ( 'NONE', #388 ) ;
#752 = DIRECTION ( 'NONE',  ( 0.000000000000000000, 0.000000000000000000, 1.000000000000000000 ) ) ;
#753 = VERTEX_POINT ( 'NONE', #631 ) ;
#754 = VECTOR ( 'NONE', #466, 1000.000000000000000 ) ;
#755 = DIRECTION ( 'NONE',  ( -1.000000000000000000, -0.000000000000000000, -0.000000000000000000 ) ) ;
#756 = VERTEX_POINT ( 'NONE', #94 ) ;
#757 = FILL_AREA_STYLE_COLOUR ( '', #453 ) ;
#758 = EDGE_CURVE ( 'NONE', #701, #455, #566, .T. ) ;
#759 = ORIENTED_EDGE ( 'NONE', *, *, #708, .T. ) ;
#760 = CARTESIAN_POINT ( 'NONE',  ( -9.500000000000001776, 6.100000000000000533, 4.999999999999999112 ) ) ;
#761 = PRESENTATION_STYLE_ASSIGNMENT (( #279 ) ) ;
#762 = VECTOR ( 'NONE', #235, 1000.000000000000000 ) ;
#763 = DIRECTION ( 'NONE',  ( 0.000000000000000000, 0.000000000000000000, -1.000000000000000000 ) ) ;
#764 = ADVANCED_FACE ( 'NONE', ( #381 ), #87, .F. ) ;
#765 = CARTESIAN_POINT ( 'NONE',  ( 14.50000000000000178, 9.099999999999999645, -5.000000000000000000 ) ) ;
#766 =( GEOMETRIC_REPRESENTATION_CONTEXT ( 3 ) GLOBAL_UNCERTAINTY_ASSIGNED_CONTEXT ( ( #496 ) ) GLOBAL_UNIT_ASSIGNED_CONTEXT ( ( #461, #516, #101 ) ) REPRESENTATION_CONTEXT ( 'NONE', 'WORKASPACE' ) );
#767 = DIRECTION ( 'NONE',  ( -1.000000000000000000, -0.000000000000000000, -0.000000000000000000 ) ) ;
#768 = ADVANCED_FACE ( 'NONE', ( #442 ), #682, .T. ) ;
#769 = PRODUCT_DEFINITION_FORMATION_WITH_SPECIFIED_SOURCE ( 'ä»', '', #402, .NOT_KNOWN. ) ;
#770 = DIRECTION ( 'NONE',  ( 0.000000000000000000, -0.000000000000000000, 1.000000000000000000 ) ) ;
#771 = VERTEX_POINT ( 'NONE', #626 ) ;
#772 = EDGE_CURVE ( 'NONE', #283, #665, #86, .T. ) ;
#773 = FACE_OUTER_BOUND ( 'NONE', #226, .T. ) ;
#774 = ORIENTED_EDGE ( 'NONE', *, *, #660, .F. ) ;
#775 = EDGE_LOOP ( 'NONE', ( #222, #400, #696, #688 ) ) ;
ENDSEC;
END-ISO-10303-21;
